<svg width="39" height="39" viewBox="0 0 39 39" fill="none" xmlns="http://www.w3.org/2000/svg">
<path d="M22.945 6.5L25.9187 9.75H32.5V29.25H6.5V9.75H13.0813L16.055 6.5H22.945ZM24.375 3.25H14.625L11.6512 6.5H6.5C4.7125 6.5 3.25 7.9625 3.25 9.75V29.25C3.25 31.0375 4.7125 32.5 6.5 32.5H32.5C34.2875 32.5 35.75 31.0375 35.75 29.25V9.75C35.75 7.9625 34.2875 6.5 32.5 6.5H27.3487L24.375 3.25ZM19.5 14.625C22.1812 14.625 24.375 16.8188 24.375 19.5C24.375 22.1812 22.1812 24.375 19.5 24.375C16.8188 24.375 14.625 22.1812 14.625 19.5C14.625 16.8188 16.8188 14.625 19.5 14.625ZM19.5 11.375C15.015 11.375 11.375 15.015 11.375 19.5C11.375 23.985 15.015 27.625 19.5 27.625C23.985 27.625 27.625 23.985 27.625 19.5C27.625 15.015 23.985 11.375 19.5 11.375Z" fill="white"/>
</svg>
